<svg xmlns="http://www.w3.org/2000/svg" xmlns:xlink="http://www.w3.org/1999/xlink" width="31" height="31" viewBox="0 0 31 31">
  <defs>
    <path id="tag_rejected-a" d="M14.9838081,0 L25.6963519,1.61382593e-14 C27.5209064,1.61382593e-14 29,1.47909364 29,3.30364812 L29,14.0161919 L14.9838081,28.0323839 C13.6936532,29.3225387 11.6018989,29.3225387 10.3117441,28.0323839 L0.967616132,18.6882559 C-0.322538711,17.3981011 -0.322538711,15.3063468 0.967616132,14.0161919 L14.9838081,0 Z M20.5,12 C22.4329966,12 24,10.4329966 24,8.5 C24,6.56700338 22.4329966,5 20.5,5 C18.5670034,5 17,6.56700338 17,8.5 C17,10.4329966 18.5670034,12 20.5,12 Z"/>
  </defs>
  <use fill="#282828" fill-rule="evenodd" stroke="#000D0D" transform="translate(1 1)" xlink:href="#tag_rejected-a"/>
</svg>
